<!DOCTYPE svg PUBLIC "-//W3C//DTD SVG 1.1//EN" "http://www.w3.org/Graphics/SVG/1.1/DTD/svg11.dtd">
<svg fill="#959595" width="20" height="20" viewBox="4 4 64 64" version="1.1" xmlns="http://www.w3.org/2000/svg" xmlns:xlink="http://www.w3.org/1999/xlink" xml:space="preserve" xmlns:serif="http://www.serif.com/" style="fill-rule:evenodd;clip-rule:evenodd;stroke-linejoin:round;stroke-miterlimit:2;" stroke="#959595">
<g id="SVGRepo_bgCarrier" stroke-width="0"/>
<g id="SVGRepo_tracerCarrier" stroke-linecap="round" stroke-linejoin="round"/>
<g id="SVGRepo_iconCarrier"> <g transform="matrix(1,0,0,1,-768,-320)"> <rect id="Icons" x="0" y="0" width="1280" height="800" style="fill:none;"/> <g id="Icons1" serif:id="Icons"> <g id="Strike"> </g> <g id="H1"> </g> <g id="H2"> </g> <g id="H3"> </g> <g id="list-ul"> </g> <g id="hamburger-1"> </g> <g id="hamburger-2"> </g> <g id="list-ol"> </g> <g id="list-task"> </g> <g id="trash"> </g> <g id="vertical-menu"> </g> <g id="horizontal-menu"> </g> <g id="sidebar-2"> </g> <g id="Pen"> </g> <g id="Pen1" serif:id="Pen"> </g> <g id="clock"> </g> <g id="external-link"> </g> <g id="hr"> </g> <g id="info"> </g> <g id="warning"> </g> <g id="plus-circle"> </g> <g id="minus-circle"> </g> <g id="vue"> </g> <g id="cog"> </g> <g id="logo"> </g> <g id="radio-check"> </g> <g id="eye-slash"> </g> <g id="eye"> </g> <g id="toggle-off"> </g> <g id="shredder"> </g> <g id="spinner--loading--dots-" serif:id="spinner [loading, dots]"> </g> <g id="react"> </g> <g id="check-selected"> </g> <g id="turn-off"> </g> <g id="code-block"> </g> <g id="user"> </g> <g id="coffee-bean"> </g> <g transform="matrix(0.638317,0.368532,-0.368532,0.638317,785.021,-208.975)"> <g id="coffee-beans"> <g id="coffee-bean1" serif:id="coffee-bean"> </g> </g> </g> <g id="coffee-bean-filled"> </g> <g transform="matrix(0.638317,0.368532,-0.368532,0.638317,913.062,-208.975)"> <g id="coffee-beans-filled"> <g id="coffee-bean2" serif:id="coffee-bean"> </g> </g> </g> <g id="clipboard"> </g> <g transform="matrix(1,0,0,1,128.011,1.35415)"> <g id="clipboard-paste"> </g> </g> <g id="clipboard-copy" transform="matrix(1,0,0,1,62,0)"> <g id="clipboard1" serif:id="clipboard" transform="matrix(1,0,0,1,-62,0)"> <path d="M817.979,360L817.958,370.005C817.958,373.314 815.271,376 811.963,376L783.974,376C780.665,376 777.979,373.314 777.979,370.005L778,338.535C778,335.226 780.686,332.54 783.995,332.54L788.474,332.54C788.474,332.54 788.474,332.713 788.474,332C788.474,331.731 788.581,331.472 788.772,331.282C788.962,331.091 789.221,330.984 789.49,330.984C791.343,330.984 795.08,330.984 795.08,330.984C795.08,330.984 795.15,328.028 797.979,328.028C800.808,328.028 800.85,330.984 800.85,330.984L806.365,330.984C806.926,330.984 807.381,331.439 807.381,332C807.381,332.713 807.381,332.54 807.381,332.54L811.984,332.54C815.293,332.54 817.979,335.226 817.979,338.535L817.979,349.255L813.981,349.255L813.98,339.529C813.98,337.88 812.641,336.541 810.991,336.54L807.381,336.54L807.381,337.513C807.381,338.075 806.926,338.529 806.365,338.529C803.081,338.529 792.774,338.529 789.49,338.529C788.929,338.529 788.474,338.075 788.474,337.513C788.474,336.647 788.474,336.54 788.474,336.54L784.988,336.54C783.338,336.541 781.999,337.88 781.999,339.529L781.978,369.01C781.978,370.66 783.317,371.999 784.967,371.999L810.97,371.999C812.619,371.999 813.959,370.66 813.959,369.01L813.98,360L817.979,360ZM797.979,329.382C798.818,329.382 799.499,330.064 799.499,330.903C799.499,331.742 798.818,332.423 797.979,332.423C797.14,332.423 796.458,331.742 796.458,330.903C796.458,330.064 797.14,329.382 797.979,329.382Z"/> </g> <g transform="matrix(2.91775,0,0,1,170.164,76)"> <rect x="189.816" y="267" width="4.627" height="2" style="fill-rule:nonzero;"/> </g> <g transform="matrix(2.91775,0,0,1,170.164,81.2438)"> <rect x="189.816" y="267" width="3.584" height="2" style="fill-rule:nonzero;"/> </g> <g transform="matrix(2.91775,0,0,1,170.143,86.4877)"> <rect x="189.816" y="267" width="2.749" height="2" style="fill-rule:nonzero;"/> </g> <g transform="matrix(2.91775,0,0,1,170.164,91.7315)"> <rect x="189.816" y="267" width="3.584" height="2" style="fill-rule:nonzero;"/> </g> <g transform="matrix(2.91775,0,0,1,170.164,96.9753)"> <rect x="189.816" y="267" width="4.627" height="2" style="fill-rule:nonzero;"/> </g> <g transform="matrix(6.12323e-17,-1,1,6.12323e-17,390.613,642.488)"> <path d="M290.004,369.387L285.998,369.387L285.998,350.278L278.585,357.691L275.753,354.859L287.999,342.613L288,342.614L288.001,342.613L300.247,354.859L297.415,357.691L290.004,350.28L290.004,369.387Z" style="fill-rule:nonzero;"/> </g> </g> <g id="Layer1"> </g> </g> </g> </g>
</svg>
